<?xml version="1.0" encoding="utf-8"?>
<!-- Svg Vector Icons : http://www.onlinewebfonts.com/icon -->
<!DOCTYPE svg PUBLIC "-//W3C//DTD SVG 1.1//EN" "http://www.w3.org/Graphics/SVG/1.1/DTD/svg11.dtd">
<svg version="1.1" xmlns="http://www.w3.org/2000/svg" xmlns:xlink="http://www.w3.org/1999/xlink" x="0px" y="0px" viewBox="0 0 1000 1000" enable-background="new 0 0 1000 1000" xml:space="preserve">
<metadata> Svg Vector Icons : http://www.onlinewebfonts.com/icon </metadata>
<g><g><path d="M321.8,455.5h356.4V321.8c0-49.2-17.4-91.2-52.2-126c-34.8-34.8-76.8-52.2-126-52.2c-49.2,0-91.2,17.4-126,52.2c-34.8,34.8-52.2,76.8-52.2,126L321.8,455.5L321.8,455.5z M900.9,522.3v400.9c0,18.6-6.5,34.3-19.5,47.3c-13,13-28.8,19.5-47.3,19.5H165.9c-18.6,0-34.3-6.5-47.3-19.5s-19.5-28.8-19.5-47.3V522.3c0-18.6,6.5-34.3,19.5-47.3c13-13,28.8-19.5,47.3-19.5h22.3V321.8c0-85.4,30.6-158.7,91.9-219.9C341.3,40.6,414.6,10,500,10c85.4,0,158.7,30.6,219.9,91.9c61.3,61.3,91.9,134.6,91.9,219.9v133.6h22.3c18.6,0,34.3,6.5,47.3,19.5C894.4,487.9,900.9,503.7,900.9,522.3L900.9,522.3z"/></g></g>
</svg>