<?xml version="1.0" encoding="utf-8"?>
<!-- Svg Vector Icons : http://www.onlinewebfonts.com/icon -->
<!DOCTYPE svg PUBLIC "-//W3C//DTD SVG 1.1//EN" "http://www.w3.org/Graphics/SVG/1.1/DTD/svg11.dtd">
<svg version="1.1" xmlns="http://www.w3.org/2000/svg" xmlns:xlink="http://www.w3.org/1999/xlink" x="0px" y="0px" viewBox="0 0 1000 1000" enable-background="new 0 0 1000 1000" xml:space="preserve">
<metadata> Svg Vector Icons : http://www.onlinewebfonts.com/icon </metadata>
<g><path d="M134.6,285.6C64.9,420.7,60.1,590,137.1,723.4L42,668.5l-32,55.4c93.1,52.1,133.6,75.9,184,106.2c28.5-51.5,52.8-94.4,107.4-186.1L246,612l-53.4,92.5C65.4,502.7,167.2,200.3,398.8,126.2C638,29.3,929,223.5,931.5,481.5c19.6,236.7-208.9,443.6-439.3,416.2l-29.5,51c277.7,54.4,556.5-201.7,524.7-483.1C976.1,170.8,637.1-41.2,367.1,77.5C262.8,114.2,183.1,191.5,134.6,285.6z"/></g>
</svg>