<?xml version="1.0" encoding="utf-8"?>
<!-- Svg Vector Icons : http://www.onlinewebfonts.com/icon -->
<!DOCTYPE svg PUBLIC "-//W3C//DTD SVG 1.1//EN" "http://www.w3.org/Graphics/SVG/1.1/DTD/svg11.dtd">
<svg version="1.1" xmlns="http://www.w3.org/2000/svg" xmlns:xlink="http://www.w3.org/1999/xlink" x="0px" y="0px" viewBox="0 0 1000 1000" enable-background="new 0 0 1000 1000" xml:space="preserve">
<metadata> Svg Vector Icons : http://www.onlinewebfonts.com/icon </metadata>
<g><path d="M500,990c-66.1,0-130.3-13-190.7-38.5c-58.4-24.7-110.8-60-155.7-105s-80.3-97.4-105-155.7C23,630.3,10,566.1,10,500c0-66.1,13-130.3,38.5-190.7c24.7-58.4,60-110.8,105-155.7c45-45,97.4-80.3,155.7-105C369.7,23,433.9,10,500,10c66.1,0,130.3,13,190.7,38.5c58.4,24.7,110.8,60,155.7,105c45,45,80.3,97.4,105,155.7C977,369.7,990,433.9,990,500c0,66.1-13,130.3-38.5,190.7c-24.7,58.4-60,110.8-105,155.7s-97.4,80.3-155.7,105C630.3,977,566.1,990,500,990z M500,79.6c-112.3,0-217.9,43.7-297.3,123.1C123.3,282.1,79.6,387.7,79.6,500s43.7,217.9,123.1,297.3c79.4,79.4,185,123.1,297.3,123.1c112.3,0,217.9-43.7,297.3-123.1c79.4-79.4,123.1-185,123.1-297.3s-43.7-217.9-123.1-297.3C717.9,123.3,612.3,79.6,500,79.6z"/><path d="M322.5,290.6h108v412h-108V290.6z"/><path d="M561.6,290.6h107.9v412H561.6V290.6z"/></g>
</svg>